<svg id="visual" viewBox="0 0 900 300" width="900" height="300" xmlns="http://www.w3.org/2000/svg" xmlns:xlink="http://www.w3.org/1999/xlink" version="1.1"><path d="M0 213L21.5 209.5C43 206 86 199 128.8 199.7C171.7 200.3 214.3 208.7 257.2 214.5C300 220.3 343 223.7 385.8 222.7C428.7 221.7 471.3 216.3 514.2 210.5C557 204.7 600 198.3 642.8 193.5C685.7 188.7 728.3 185.3 771.2 184.8C814 184.3 857 186.7 878.5 187.8L900 189L900 301L878.5 301C857 301 814 301 771.2 301C728.3 301 685.7 301 642.8 301C600 301 557 301 514.2 301C471.3 301 428.7 301 385.8 301C343 301 300 301 257.2 301C214.3 301 171.7 301 128.8 301C86 301 43 301 21.5 301L0 301Z" fill="#b1b1b1"></path><path d="M0 214L21.5 219.3C43 224.7 86 235.3 128.8 242.5C171.7 249.7 214.3 253.3 257.2 247.3C300 241.3 343 225.7 385.8 224.2C428.7 222.7 471.3 235.3 514.2 238.5C557 241.7 600 235.3 642.8 231.7C685.7 228 728.3 227 771.2 227.2C814 227.3 857 228.7 878.5 229.3L900 230L900 301L878.5 301C857 301 814 301 771.2 301C728.3 301 685.7 301 642.8 301C600 301 557 301 514.2 301C471.3 301 428.7 301 385.8 301C343 301 300 301 257.2 301C214.3 301 171.7 301 128.8 301C86 301 43 301 21.5 301L0 301Z" fill="#d7d7d7"></path><path d="M0 272L21.5 271C43 270 86 268 128.8 266.7C171.7 265.3 214.3 264.7 257.2 262.5C300 260.3 343 256.7 385.8 256.2C428.7 255.7 471.3 258.3 514.2 260.3C557 262.3 600 263.7 642.8 262.3C685.7 261 728.3 257 771.2 255.7C814 254.3 857 255.7 878.5 256.3L900 257L900 301L878.5 301C857 301 814 301 771.2 301C728.3 301 685.7 301 642.8 301C600 301 557 301 514.2 301C471.3 301 428.7 301 385.8 301C343 301 300 301 257.2 301C214.3 301 171.7 301 128.8 301C86 301 43 301 21.5 301L0 301Z" fill="#ffffff"></path></svg>